/* XPM */
static char *_4719_8b8b3a2b74d2d41c39a6bacf039eb12a5bf1ba3c9a779352bbb5ffe5399b7045[] = {
/* columns rows colors chars-per-pixel */
"9 9 8 1 ",
"  c black",
". c #010101",
"X c gray1",
"o c gray54",
"O c #8D8D8D",
"+ c #BBBBBB",
"@ c #C0C0C0",
"# c white",
/* pixels */
"X........",
".o+++++O ",
".+#####@ ",
".+#####@ ",
".+#####@ ",
".+#####@ ",
".+#####@ ",
".o+++++O ",
"X........"
};
