/* XPM */
static char *Y2lyY2xl[] = {
/* columns rows colors chars-per-pixel */
"10 10 6 1 ",
"  c black",
". c #9B9B9B",
"X c #CACACA",
"o c #FEFEFE",
"O c white",
"+ c None",
/* pixels */
"+++OOOO+++",
"+.OOOOOOO+",
"+OOOOXOOO+",
"OOO++++OOO",
"OOO++++ OO",
"OOX++++ OO",
"OOO++++OOO",
"+OOO  OOO+",
"+OOOOOOOO+",
"+++OOOO+++"
};
